<svg width="6" height="23" viewBox="0 0 6 23" fill="none" xmlns="http://www.w3.org/2000/svg">
<path d="M6 3.02632C6 4.6977 4.65685 6.05263 3 6.05263C1.34315 6.05263 0 4.6977 0 3.02632C0 1.35493 1.34315 0 3 0C4.65685 0 6 1.35493 6 3.02632Z" fill="#FFD233"/>
<path d="M6 11.5C6 13.1714 4.65685 14.5263 3 14.5263C1.34315 14.5263 0 13.1714 0 11.5C0 9.82861 1.34315 8.47368 3 8.47368C4.65685 8.47368 6 9.82861 6 11.5Z" fill="#FFD233"/>
<path d="M6 19.9737C6 21.6451 4.65685 23 3 23C1.34315 23 0 21.6451 0 19.9737C0 18.3023 1.34315 16.9474 3 16.9474C4.65685 16.9474 6 18.3023 6 19.9737Z" fill="#FFD233"/>
</svg>
